<svg width="56" height="56" viewBox="0 0 56 56" fill="none" xmlns="http://www.w3.org/2000/svg">
<g filter="url(#filter0_d_0_13)">
<path d="M26.38 36H29.98V26.04H40V22.44H29.98V12H26.38V22.44H16V26.04H26.38V36ZM28 48C24.6 48 21.44 47.39 18.52 46.17C15.6 44.95 13.06 43.26 10.9 41.1C8.74 38.94 7.05 36.4 5.83 33.48C4.61 30.56 4 27.4 4 24C4 20.64 4.61 17.5 5.83 14.58C7.05 11.66 8.74 9.12 10.9 6.96C13.06 4.8 15.6 3.1 18.52 1.86C21.44 0.62 24.6 0 28 0C31.36 0 34.5 0.62 37.42 1.86C40.34 3.1 42.88 4.8 45.04 6.96C47.2 9.12 48.9 11.66 50.14 14.58C51.38 17.5 52 20.64 52 24C52 27.4 51.38 30.56 50.14 33.48C48.9 36.4 47.2 38.94 45.04 41.1C42.88 43.26 40.34 44.95 37.42 46.17C34.5 47.39 31.36 48 28 48ZM28 44.4C33.6 44.4 38.4 42.4 42.4 38.4C46.4 34.4 48.4 29.6 48.4 24C48.4 18.4 46.4 13.6 42.4 9.6C38.4 5.6 33.6 3.6 28 3.6C22.4 3.6 17.6 5.6 13.6 9.6C9.6 13.6 7.6 18.4 7.6 24C7.6 29.6 9.6 34.4 13.6 38.4C17.6 42.4 22.4 44.4 28 44.4Z" fill="#323238"/>
</g>
<defs>
<filter id="filter0_d_0_13" x="0" y="0" width="56" height="56" filterUnits="userSpaceOnUse" color-interpolation-filters="sRGB">
<feFlood flood-opacity="0" result="BackgroundImageFix"/>
<feColorMatrix in="SourceAlpha" type="matrix" values="0 0 0 0 0 0 0 0 0 0 0 0 0 0 0 0 0 0 127 0" result="hardAlpha"/>
<feOffset dy="4"/>
<feGaussianBlur stdDeviation="2"/>
<feComposite in2="hardAlpha" operator="out"/>
<feColorMatrix type="matrix" values="0 0 0 0 0 0 0 0 0 0 0 0 0 0 0 0 0 0 0.25 0"/>
<feBlend mode="normal" in2="BackgroundImageFix" result="effect1_dropShadow_0_13"/>
<feBlend mode="normal" in="SourceGraphic" in2="effect1_dropShadow_0_13" result="shape"/>
</filter>
</defs>
</svg>
